<mxfile host="app.diagrams.net" modified="2020-08-06T05:06:16.122Z" agent="5.0 (X11; Linux x86_64) AppleWebKit/537.36 (KHTML, like Gecko) Chrome/84.0.4147.105 Safari/537.36" etag="Lir7EyJ-f0rW_fx2G0Yj" version="13.6.0" type="github">
  <diagram id="KKc20jNpeJdm3vhPS4j7" name="第 1 页">
    <mxGraphModel dx="1081" dy="621" grid="0" gridSize="10" guides="1" tooltips="1" connect="1" arrows="1" fold="1" page="1" pageScale="1" pageWidth="827" pageHeight="1169" math="0" shadow="0">
      <root>
        <mxCell id="0" />
        <mxCell id="1" parent="0" />
        <mxCell id="plNL1xm4XeK-b_qIvxvJ-60" value="" style="shape=image;verticalLabelPosition=bottom;labelBackgroundColor=#ffffff;verticalAlign=top;aspect=fixed;imageAspect=0;image=https://computerhardwarecomponentsandfunctions.files.wordpress.com/2014/10/cpu-diagram.png;" vertex="1" parent="1">
          <mxGeometry x="157" y="138.00333333333333" width="520" height="170" as="geometry" />
        </mxCell>
        <mxCell id="plNL1xm4XeK-b_qIvxvJ-62" value="" style="shape=image;verticalLabelPosition=bottom;labelBackgroundColor=#ffffff;verticalAlign=top;aspect=fixed;imageAspect=0;image=https://upload.wikimedia.org/wikipedia/commons/thumb/6/68/Computer_system_bus.svg/350px-Computer_system_bus.svg.png;" vertex="1" parent="1">
          <mxGeometry x="213" y="575" width="350" height="256" as="geometry" />
        </mxCell>
        <mxCell id="plNL1xm4XeK-b_qIvxvJ-63" value="" style="shape=image;verticalLabelPosition=bottom;labelBackgroundColor=#ffffff;verticalAlign=top;aspect=fixed;imageAspect=0;image=https://chortle.ccsu.edu/java5/notes/chap01/figure1-1.gif;" vertex="1" parent="1">
          <mxGeometry x="132" y="338" width="520" height="189" as="geometry" />
        </mxCell>
        <mxCell id="plNL1xm4XeK-b_qIvxvJ-64" value="" style="shape=image;verticalLabelPosition=bottom;labelBackgroundColor=#ffffff;verticalAlign=top;aspect=fixed;imageAspect=0;image=https://media.geeksforgeeks.org/wp-content/uploads/ip1.png;" vertex="1" parent="1">
          <mxGeometry x="130" y="844" width="508" height="309.68" as="geometry" />
        </mxCell>
        <mxCell id="plNL1xm4XeK-b_qIvxvJ-65" value="" style="shape=image;verticalLabelPosition=bottom;labelBackgroundColor=#ffffff;verticalAlign=top;aspect=fixed;imageAspect=0;image=https://cs.nyu.edu/courses/fall01/V22.0436-001/lectures/figs/IO-collection.png;" vertex="1" parent="1">
          <mxGeometry x="640" y="809" width="398" height="359.63" as="geometry" />
        </mxCell>
        <mxCell id="plNL1xm4XeK-b_qIvxvJ-66" value="" style="shape=image;verticalLabelPosition=bottom;labelBackgroundColor=#ffffff;verticalAlign=top;aspect=fixed;imageAspect=0;image=https://bob.cs.sonoma.edu/IntroCompOrg-x64/book_figs/subsys.png;" vertex="1" parent="1">
          <mxGeometry x="48" y="1153.68" width="520" height="473" as="geometry" />
        </mxCell>
        <mxCell id="plNL1xm4XeK-b_qIvxvJ-68" value="" style="shape=image;verticalLabelPosition=bottom;labelBackgroundColor=#ffffff;verticalAlign=top;aspect=fixed;imageAspect=0;image=https://images.slideplayer.com/13/4071259/slides/slide_5.jpg;" vertex="1" parent="1">
          <mxGeometry x="586" y="1190" width="520" height="390" as="geometry" />
        </mxCell>
      </root>
    </mxGraphModel>
  </diagram>
</mxfile>
